<?xml version="1.0" encoding="UTF-8" standalone="no"?>
<svg
   width="32"
   height="32"
   viewBox="0 0 32 32"
   fill="none"
   version="1.1"
   id="svg5"
   xmlns="http://www.w3.org/2000/svg"
   xmlns:svg="http://www.w3.org/2000/svg">
  <g
     clip-path="url(#clip0_1_9)"
     id="group2">
    <g
       clip-path="url(#clip1_1_9)"
       id="group">
      <rect
         width="32"
         height="32"
         rx="2.6855516"
         fill="#FFEDD1"
         id="bg"
         style="fill:#dddddb;fill-opacity:1"
         x="0"
         y="0" />
      <g
         clip-path="url(#clip2_1_9)"
         id="group1"
         transform="matrix(1.0180315,0,0,1.0180315,-0.27948854,-0.29752006)">
        <path
           d="m 26,25.6875 c 0,0.3481 -0.13828,0.68194 -0.38442,0.92808 C 25.36944,26.86172 25.0356,27 24.6875,27 H 18.125 C 17.7769,27 17.4431,26.86172 17.1969,26.61558 16.9508,26.36944 16.8125,26.0356 16.8125,25.6875 V 7.3125 c 0,-0.3481 0.1383,-0.6819 0.3844,-0.9281 C 17.4431,6.1383 17.7769,6 18.125,6 h 6.5625 c 0.3481,0 0.68194,0.1383 0.92808,0.3844 C 25.86172,6.6306 26,6.9644 26,7.3125 Z m -11.8125,0 c 0,0.3481 -0.1383,0.68194 -0.3844,0.92808 C 13.5569,26.86172 13.2231,27 12.875,27 H 6.3125 C 5.9644,27 5.6306,26.86172 5.3844,26.61558 5.1383,26.36944 5,26.0356 5,25.6875 V 19.125 c 0,-0.3481 0.1383,-0.6819 0.3844,-0.9281 0.2462,-0.2461 0.58,-0.3844 0.9281,-0.3844 h 6.5625 c 0.3481,0 0.6819,0.1383 0.9281,0.3844 0.2461,0.2462 0.3844,0.58 0.3844,0.9281 z m 0,-11.8125 c 0,0.3481 -0.1383,0.6819 -0.3844,0.9281 -0.2462,0.2461 -0.58,0.3844 -0.9281,0.3844 H 6.3125 c -0.3481,0 -0.6819,-0.1383 -0.9281,-0.3844 C 5.1383,14.5569 5,14.2231 5,13.875 V 7.3125 C 5,6.9644 5.1383,6.6306 5.3844,6.3844 5.6306,6.1383 5.9644,6 6.3125,6 h 6.5625 c 0.3481,0 0.6819,0.1383 0.9281,0.3844 0.2461,0.2462 0.3844,0.58 0.3844,0.9281 z"
           fill="black"
           id="fg"
           style="fill:#181818;fill-opacity:1" />
      </g>
    </g>
  </g>
  <defs
     id="defs5">
    <clipPath
       id="clip0_1_9">
      <rect
         width="32"
         height="32"
         fill="#ffffff"
         id="rect3"
         x="0"
         y="0" />
    </clipPath>
    <clipPath
       id="clip1_1_9">
      <rect
         width="32"
         height="32"
         fill="#ffffff"
         id="rect4"
         x="0"
         y="0" />
    </clipPath>
    <clipPath
       id="clip2_1_9">
      <rect
         width="21"
         height="21"
         fill="#ffffff"
         transform="translate(5,6)"
         id="rect5"
         x="0"
         y="0" />
    </clipPath>
  </defs>
</svg>
